Coordinates
version=1
nRows=5
nColumns=42
inDegrees=yes

Units are S.I. units (second, meters, Newtons, ...)
If the header above contains a line with 'inDegrees', this indicates whether rotational values are in degrees (yes) or radians (no).

endheader
time	pelvis_tilt	pelvis_list	pelvis_rotation	pelvis_tx	pelvis_ty	pelvis_tz	hip_flexion_r	hip_adduction_r	hip_rotation_r	knee_angle_r	knee_adduction_r	knee_angle_r_beta	ankle_angle_r	subtalar_angle_r	mtp_angle_r	hip_flexion_l	hip_adduction_l	hip_rotation_l	knee_angle_l	knee_adduction_l	knee_angle_l_beta	ankle_angle_l	subtalar_angle_l	mtp_angle_l	lumbar_extension	lumbar_bending	lumbar_rotation	arm_flex_r	arm_add_r	arm_rot_r	elbow_flex_r	pro_sup_r	wrist_flex_r	wrist_dev_r	arm_flex_l	arm_add_l	arm_rot_l	elbow_flex_l	pro_sup_l	wrist_flex_l	wrist_dev_l
     10.00000000	     -7.72906016	     -3.06546200	     -0.37157598	      0.80646696	      0.96581267	      0.49518508	     -0.97045163	      3.25867153	     -5.57747065	     11.98112833	      6.25096954	      0.20911014	      5.12227297	      5.03651101	    -12.37543138	     32.19038558	     -6.17021119	    -11.44662755	     10.25310605	      6.43431604	      0.17895046	      0.15552009	      4.93258303	     -8.04764442	      0.00000000	      0.00000000	      0.00000000	      0.00000000	     -5.96458236	      0.00000000	     74.97872644	     90.00000001	      0.00000000	      0.00000000	      0.00000000	     -5.96458236	      0.00000000	     74.97872644	     90.00000001	      0.00000000	      0.00000000
     10.00500000	     -7.45654014	     -3.03580643	     -0.34175675	      0.80665557	      0.96565740	      0.49464085	     -1.69713019	      3.19575506	     -5.61826181	     11.94273874	      6.25096954	      0.20844011	      5.05042575	      4.91323957	    -12.27390442	     31.64249983	     -6.12001138	    -11.53588221	      9.01282595	      6.43431604	      0.15730349	      0.21035301	      5.28275177	     -7.93039648	      0.00000000	      0.00000000	      0.00000000	      0.00000000	     -5.98704710	      0.00000000	     74.97883005	     90.00000001	      0.00000000	      0.00000000	      0.00000000	     -5.98704710	      0.00000000	     74.97883005	     90.00000001	      0.00000000	      0.00000000
     10.01000000	     -7.36306656	     -3.05223017	     -0.34502949	      0.80698087	      0.96518815	      0.49407100	     -2.17634538	      3.15573383	     -5.70113619	     12.01011513	      6.25096954	      0.20961605	      5.12415604	      5.10929335	    -12.43442054	     31.35706524	     -6.12752017	    -11.71478006	      8.05272683	      6.43431604	      0.14054660	      0.45439881	      5.95272657	     -7.93800047	      0.00000000	      0.00000000	      0.00000000	      0.00000000	     -6.01442697	      0.00000000	     74.97895603	     90.00000001	      0.00000000	      0.00000000	      0.00000000	     -6.01442697	      0.00000000	     74.97895603	     90.00000001	      0.00000000	      0.00000000
     10.01500000	     -7.45805444	     -3.12700271	     -0.32187816	      0.80735053	      0.96444468	      0.49351748	     -2.42887494	      3.19930947	     -5.74524734	     12.13445160	      6.25096954	      0.21178613	      5.15575370	      5.20410422	    -12.54254810	     31.31811942	     -6.16575034	    -11.71151087	      7.25572388	      6.43431604	      0.12663627	      0.67437020	      6.46425480	     -7.98196769	      0.00000000	      0.00000000	      0.00000000	      0.00000000	     -6.02285333	      0.00000000	     74.97899472	     90.00000001	      0.00000000	      0.00000000	      0.00000000	     -6.02285333	      0.00000000	     74.97899472	     90.00000001	      0.00000000	      0.00000000
     10.02000000	     -7.36941390	     -3.08947740	     -0.35086283	      0.80783004	      0.96395630	      0.49303936	     -2.85109809	      3.09971504	     -5.83859818	     12.32773134	      6.25096954	      0.21515950	      5.22087565	      5.48229979	    -12.80845985	     31.03988356	     -6.12940003	    -11.88788888	      6.54843377	      6.43431604	      0.11429173	      0.86123298	      7.04028924	     -7.99560707	      0.00000000	      0.00000000	      0.00000000	      0.00000000	     -6.03645938	      0.00000000	     74.97905714	     90.00000001	      0.00000000	      0.00000000	      0.00000000	     -6.03645938	      0.00000000	     74.97905714	     90.00000001	      0.00000000	      0.00000000
